<mxfile host="app.diagrams.net" modified="2024-06-19T22:58:37.840Z" agent="Mozilla/5.0 (Windows NT 10.0; Win64; x64) AppleWebKit/537.36 (KHTML, like Gecko) Chrome/126.0.0.0 Safari/537.36" etag="u-yJ3EGi2WxUmfkzFsdw" version="24.5.5" type="github">
  <diagram name="Page-1" id="2YBvvXClWsGukQMizWep">
    <mxGraphModel dx="794" dy="446" grid="1" gridSize="10" guides="1" tooltips="1" connect="1" arrows="1" fold="1" page="1" pageScale="1" pageWidth="850" pageHeight="1100" math="0" shadow="0">
      <root>
        <mxCell id="0" />
        <mxCell id="1" parent="0" />
        <mxCell id="wSJylu6WsY_0wijPsFzp-1" value="Insere Cinema" style="text;html=1;align=center;verticalAlign=middle;resizable=0;points=[];autosize=1;strokeColor=none;fillColor=none;" vertex="1" parent="1">
          <mxGeometry x="245" y="20" width="100" height="30" as="geometry" />
        </mxCell>
        <mxCell id="wSJylu6WsY_0wijPsFzp-2" value="Tela" style="shape=umlLifeline;perimeter=lifelinePerimeter;whiteSpace=wrap;html=1;container=1;dropTarget=0;collapsible=0;recursiveResize=0;outlineConnect=0;portConstraint=eastwest;newEdgeStyle={&quot;edgeStyle&quot;:&quot;elbowEdgeStyle&quot;,&quot;elbow&quot;:&quot;vertical&quot;,&quot;curved&quot;:0,&quot;rounded&quot;:0};" vertex="1" parent="1">
          <mxGeometry x="250" y="80" width="100" height="560" as="geometry" />
        </mxCell>
        <mxCell id="wSJylu6WsY_0wijPsFzp-3" value="Insere informações do cinema" style="html=1;verticalAlign=bottom;endArrow=block;curved=0;rounded=0;" edge="1" parent="1" source="wSJylu6WsY_0wijPsFzp-4">
          <mxGeometry x="0.0499" width="80" relative="1" as="geometry">
            <mxPoint x="120" y="200" as="sourcePoint" />
            <mxPoint x="300" y="200" as="targetPoint" />
            <mxPoint as="offset" />
          </mxGeometry>
        </mxCell>
        <mxCell id="wSJylu6WsY_0wijPsFzp-4" value="" style="shape=umlLifeline;perimeter=lifelinePerimeter;whiteSpace=wrap;html=1;container=1;dropTarget=0;collapsible=0;recursiveResize=0;outlineConnect=0;portConstraint=eastwest;newEdgeStyle={&quot;curved&quot;:0,&quot;rounded&quot;:0};participant=umlActor;" vertex="1" parent="1">
          <mxGeometry x="80" y="80" width="20" height="560" as="geometry" />
        </mxCell>
        <mxCell id="wSJylu6WsY_0wijPsFzp-5" value="Operador" style="text;html=1;align=center;verticalAlign=middle;resizable=0;points=[];autosize=1;strokeColor=none;fillColor=none;" vertex="1" parent="1">
          <mxGeometry x="55" y="50" width="70" height="30" as="geometry" />
        </mxCell>
        <mxCell id="wSJylu6WsY_0wijPsFzp-6" value="Cinema" style="shape=umlLifeline;perimeter=lifelinePerimeter;whiteSpace=wrap;html=1;container=1;dropTarget=0;collapsible=0;recursiveResize=0;outlineConnect=0;portConstraint=eastwest;newEdgeStyle={&quot;edgeStyle&quot;:&quot;elbowEdgeStyle&quot;,&quot;elbow&quot;:&quot;vertical&quot;,&quot;curved&quot;:0,&quot;rounded&quot;:0};" vertex="1" parent="1">
          <mxGeometry x="470" y="80" width="100" height="560" as="geometry" />
        </mxCell>
        <mxCell id="wSJylu6WsY_0wijPsFzp-7" value="" style="html=1;points=[[0,0,0,0,5],[0,1,0,0,-5],[1,0,0,0,5],[1,1,0,0,-5]];perimeter=orthogonalPerimeter;outlineConnect=0;targetShapes=umlLifeline;portConstraint=eastwest;newEdgeStyle={&quot;curved&quot;:0,&quot;rounded&quot;:0};" vertex="1" parent="wSJylu6WsY_0wijPsFzp-6">
          <mxGeometry x="45" y="160" width="10" height="50" as="geometry" />
        </mxCell>
        <mxCell id="wSJylu6WsY_0wijPsFzp-8" value="Insere_Cinema(info_cinema)" style="html=1;verticalAlign=bottom;endArrow=block;curved=0;rounded=0;" edge="1" parent="1">
          <mxGeometry x="0.0023" width="80" relative="1" as="geometry">
            <mxPoint x="300" y="240" as="sourcePoint" />
            <mxPoint x="519.5" y="240" as="targetPoint" />
            <mxPoint as="offset" />
            <Array as="points">
              <mxPoint x="420" y="240" />
            </Array>
          </mxGeometry>
        </mxCell>
        <mxCell id="wSJylu6WsY_0wijPsFzp-9" value="Clica no botão de inserir cinema" style="html=1;verticalAlign=bottom;endArrow=block;curved=0;rounded=0;" edge="1" parent="1">
          <mxGeometry x="-0.0024" width="80" relative="1" as="geometry">
            <mxPoint x="89.5" y="230" as="sourcePoint" />
            <mxPoint x="300" y="230" as="targetPoint" />
            <mxPoint as="offset" />
          </mxGeometry>
        </mxCell>
        <mxCell id="wSJylu6WsY_0wijPsFzp-10" value="Cod_Erro" style="html=1;verticalAlign=bottom;endArrow=open;dashed=1;endSize=8;curved=0;rounded=0;" edge="1" parent="1">
          <mxGeometry relative="1" as="geometry">
            <mxPoint x="520" y="290" as="sourcePoint" />
            <mxPoint x="299.5" y="290" as="targetPoint" />
          </mxGeometry>
        </mxCell>
        <mxCell id="wSJylu6WsY_0wijPsFzp-11" value="Se Cod_Erro = 0, cinema incluido com sucesso, se não, tratar erro" style="html=1;whiteSpace=wrap;" vertex="1" parent="1">
          <mxGeometry x="125" y="260" width="160" height="80" as="geometry" />
        </mxCell>
        <mxCell id="wSJylu6WsY_0wijPsFzp-12" value="Excluir Cinema" style="text;html=1;align=center;verticalAlign=middle;resizable=0;points=[];autosize=1;strokeColor=none;fillColor=none;" vertex="1" parent="1">
          <mxGeometry x="875" y="30" width="100" height="30" as="geometry" />
        </mxCell>
        <mxCell id="wSJylu6WsY_0wijPsFzp-13" value="Cinema" style="shape=umlLifeline;perimeter=lifelinePerimeter;whiteSpace=wrap;html=1;container=1;dropTarget=0;collapsible=0;recursiveResize=0;outlineConnect=0;portConstraint=eastwest;newEdgeStyle={&quot;edgeStyle&quot;:&quot;elbowEdgeStyle&quot;,&quot;elbow&quot;:&quot;vertical&quot;,&quot;curved&quot;:0,&quot;rounded&quot;:0};" vertex="1" parent="1">
          <mxGeometry x="1060" y="90" width="100" height="560" as="geometry" />
        </mxCell>
        <mxCell id="wSJylu6WsY_0wijPsFzp-14" value="" style="html=1;points=[[0,0,0,0,5],[0,1,0,0,-5],[1,0,0,0,5],[1,1,0,0,-5]];perimeter=orthogonalPerimeter;outlineConnect=0;targetShapes=umlLifeline;portConstraint=eastwest;newEdgeStyle={&quot;curved&quot;:0,&quot;rounded&quot;:0};" vertex="1" parent="wSJylu6WsY_0wijPsFzp-13">
          <mxGeometry x="45" y="160" width="10" height="200" as="geometry" />
        </mxCell>
        <mxCell id="wSJylu6WsY_0wijPsFzp-15" value="Tela" style="shape=umlLifeline;perimeter=lifelinePerimeter;whiteSpace=wrap;html=1;container=1;dropTarget=0;collapsible=0;recursiveResize=0;outlineConnect=0;portConstraint=eastwest;newEdgeStyle={&quot;edgeStyle&quot;:&quot;elbowEdgeStyle&quot;,&quot;elbow&quot;:&quot;vertical&quot;,&quot;curved&quot;:0,&quot;rounded&quot;:0};" vertex="1" parent="1">
          <mxGeometry x="880" y="90" width="100" height="560" as="geometry" />
        </mxCell>
        <mxCell id="wSJylu6WsY_0wijPsFzp-16" value="Localiza Cinema para exclusão" style="html=1;verticalAlign=bottom;endArrow=block;curved=0;rounded=0;" edge="1" parent="1" source="wSJylu6WsY_0wijPsFzp-19">
          <mxGeometry x="-0.1069" width="80" relative="1" as="geometry">
            <mxPoint x="750" y="210" as="sourcePoint" />
            <mxPoint x="930" y="210" as="targetPoint" />
            <mxPoint as="offset" />
          </mxGeometry>
        </mxCell>
        <mxCell id="wSJylu6WsY_0wijPsFzp-17" value="Localizar_Cinema(cinema)" style="html=1;verticalAlign=bottom;endArrow=block;curved=0;rounded=0;" edge="1" parent="1" target="wSJylu6WsY_0wijPsFzp-13">
          <mxGeometry x="0.0028" width="80" relative="1" as="geometry">
            <mxPoint x="930" y="250" as="sourcePoint" />
            <mxPoint x="1069.5" y="250" as="targetPoint" />
            <mxPoint as="offset" />
          </mxGeometry>
        </mxCell>
        <mxCell id="wSJylu6WsY_0wijPsFzp-18" value="Clica no botão para Localizar" style="html=1;verticalAlign=bottom;endArrow=block;curved=0;rounded=0;" edge="1" parent="1" source="wSJylu6WsY_0wijPsFzp-19">
          <mxGeometry width="80" relative="1" as="geometry">
            <mxPoint x="750" y="240" as="sourcePoint" />
            <mxPoint x="930" y="240" as="targetPoint" />
          </mxGeometry>
        </mxCell>
        <mxCell id="wSJylu6WsY_0wijPsFzp-19" value="" style="shape=umlLifeline;perimeter=lifelinePerimeter;whiteSpace=wrap;html=1;container=1;dropTarget=0;collapsible=0;recursiveResize=0;outlineConnect=0;portConstraint=eastwest;newEdgeStyle={&quot;curved&quot;:0,&quot;rounded&quot;:0};participant=umlActor;" vertex="1" parent="1">
          <mxGeometry x="710" y="90" width="20" height="560" as="geometry" />
        </mxCell>
        <mxCell id="wSJylu6WsY_0wijPsFzp-20" value="Operador" style="text;html=1;align=center;verticalAlign=middle;resizable=0;points=[];autosize=1;strokeColor=none;fillColor=none;" vertex="1" parent="1">
          <mxGeometry x="685" y="60" width="70" height="30" as="geometry" />
        </mxCell>
        <mxCell id="wSJylu6WsY_0wijPsFzp-21" value="Obj_Cinema" style="html=1;verticalAlign=bottom;endArrow=open;dashed=1;endSize=8;curved=0;rounded=0;" edge="1" parent="1">
          <mxGeometry x="0.0057" relative="1" as="geometry">
            <mxPoint x="1105" y="330" as="sourcePoint" />
            <mxPoint x="930" y="330" as="targetPoint" />
            <mxPoint as="offset" />
          </mxGeometry>
        </mxCell>
        <mxCell id="wSJylu6WsY_0wijPsFzp-22" value="Se Cod_Erro = 0, cinema excluido com sucesso, se não, tratar erro" style="html=1;whiteSpace=wrap;" vertex="1" parent="1">
          <mxGeometry x="755" y="410" width="160" height="80" as="geometry" />
        </mxCell>
        <mxCell id="wSJylu6WsY_0wijPsFzp-23" value="Clica no botão de excluir" style="html=1;verticalAlign=bottom;endArrow=block;curved=0;rounded=0;" edge="1" parent="1" source="wSJylu6WsY_0wijPsFzp-19" target="wSJylu6WsY_0wijPsFzp-15">
          <mxGeometry width="80" relative="1" as="geometry">
            <mxPoint x="855" y="350" as="sourcePoint" />
            <mxPoint x="925" y="350" as="targetPoint" />
            <Array as="points">
              <mxPoint x="905" y="350" />
            </Array>
          </mxGeometry>
        </mxCell>
        <mxCell id="wSJylu6WsY_0wijPsFzp-24" value="Confirma mensagem de exclusão" style="html=1;verticalAlign=bottom;endArrow=block;curved=0;rounded=0;" edge="1" parent="1" source="wSJylu6WsY_0wijPsFzp-19" target="wSJylu6WsY_0wijPsFzp-15">
          <mxGeometry width="80" relative="1" as="geometry">
            <mxPoint x="725" y="380" as="sourcePoint" />
            <mxPoint x="935" y="380" as="targetPoint" />
            <Array as="points">
              <mxPoint x="910" y="380" />
            </Array>
          </mxGeometry>
        </mxCell>
        <mxCell id="wSJylu6WsY_0wijPsFzp-25" value="Exclui_Cinema(info_cinema)" style="html=1;verticalAlign=bottom;endArrow=block;curved=0;rounded=0;" edge="1" parent="1">
          <mxGeometry width="80" relative="1" as="geometry">
            <mxPoint x="929.5" y="390" as="sourcePoint" />
            <mxPoint x="1105" y="390" as="targetPoint" />
          </mxGeometry>
        </mxCell>
        <mxCell id="wSJylu6WsY_0wijPsFzp-26" value="Cod_Erro" style="html=1;verticalAlign=bottom;endArrow=open;dashed=1;endSize=8;curved=0;rounded=0;" edge="1" parent="1" target="wSJylu6WsY_0wijPsFzp-15">
          <mxGeometry relative="1" as="geometry">
            <mxPoint x="1105" y="450" as="sourcePoint" />
            <mxPoint x="1025" y="450" as="targetPoint" />
          </mxGeometry>
        </mxCell>
      </root>
    </mxGraphModel>
  </diagram>
</mxfile>
